<?xml version="1.0" encoding="UTF-8"?>
<svg width="50px" height="50px" viewBox="0 0 50 50" version="1.1" xmlns="http://www.w3.org/2000/svg" xmlns:xlink="http://www.w3.org/1999/xlink">
    <!-- Generator: Sketch 45 (43475) - http://www.bohemiancoding.com/sketch -->
    <title>clock</title>
    <desc>Created with Sketch.</desc>
    <defs></defs>
    <g id="Elements" stroke="none" stroke-width="1" fill="none" fill-rule="evenodd">
        <g id="icons" transform="translate(-461.000000, -127.000000)">
            <g transform="translate(321.000000, 126.000000)" id="clock">
                <g transform="translate(139.000000, 0.000000)">
                    <g id="shape" transform="translate(3.000000, 3.000000)">
                        <circle id="Oval-3" stroke="#30B2C8" stroke-width="4" fill="#FFFFFF" cx="23" cy="23" r="23"></circle>
                        <path d="M21.7222222,14.0555556 L21.7222222,24.2777778" id="Line" stroke="#30B2C8" stroke-width="3" stroke-linecap="square"></path>
                        <circle id="Oval-4" fill="#30B2C8" cx="22.5740741" cy="8.09259259" r="2.12962963"></circle>
                        <circle id="Oval-4" fill="#30B2C8" cx="22.5740741" cy="38.7592593" r="2.12962963"></circle>
                        <circle id="Oval-4" fill="#30B2C8" cx="8.94444444" cy="21.7222222" r="2.12962963"></circle>
                        <circle id="Oval-4" fill="#30B2C8" cx="11.5" cy="14.0555556" r="1.27777778"></circle>
                        <path d="M15.7592593,11.0740741 C16.4649564,11.0740741 17.037037,10.5019935 17.037037,9.7962963 C17.037037,9.09059912 16.4649564,8.51851852 15.7592593,8.51851852 C15.0535621,8.51851852 14.4814815,9.09059912 14.4814815,9.7962963 C14.4814815,10.5019935 15.0535621,11.0740741 15.7592593,11.0740741 Z" id="Oval-4" fill="#30B2C8"></path>
                        <circle id="Oval-4" fill="#30B2C8" cx="34.5" cy="14.0555556" r="1.27777778"></circle>
                        <path d="M30.2407407,11.0740741 C30.9464379,11.0740741 31.5185185,10.5019935 31.5185185,9.7962963 C31.5185185,9.09059912 30.9464379,8.51851852 30.2407407,8.51851852 C29.5350436,8.51851852 28.962963,9.09059912 28.962963,9.7962963 C28.962963,10.5019935 29.5350436,11.0740741 30.2407407,11.0740741 Z" id="Oval-4" fill="#30B2C8"></path>
                        <circle id="Oval-4" fill="#30B2C8" transform="translate(31.092593, 35.351852) scale(1, -1) translate(-31.092593, -35.351852) " cx="31.0925926" cy="35.3518519" r="1.27777778"></circle>
                        <path d="M36.2037037,31.5185185 C36.9094009,31.5185185 37.4814815,30.9464379 37.4814815,30.2407407 C37.4814815,29.5350436 36.9094009,28.962963 36.2037037,28.962963 C35.4980065,28.962963 34.9259259,29.5350436 34.9259259,30.2407407 C34.9259259,30.9464379 35.4980065,31.5185185 36.2037037,31.5185185 Z" id="Oval-4" fill="#30B2C8" transform="translate(36.203704, 30.240741) scale(1, -1) translate(-36.203704, -30.240741) "></path>
                        <circle id="Oval-4" fill="#30B2C8" cx="8.94444444" cy="30.2407407" r="1.27777778"></circle>
                        <path d="M14.0555556,36.6296296 C14.7612527,36.6296296 15.3333333,36.057549 15.3333333,35.3518519 C15.3333333,34.6461547 14.7612527,34.0740741 14.0555556,34.0740741 C13.3498584,34.0740741 12.7777778,34.6461547 12.7777778,35.3518519 C12.7777778,36.057549 13.3498584,36.6296296 14.0555556,36.6296296 Z" id="Oval-4" fill="#30B2C8"></path>
                        <circle id="Oval-4" fill="#30B2C8" cx="37.0555556" cy="21.7222222" r="2.12962963"></circle>
                        <path d="M22.5740741,25.1296296 L33.2222222,34.0740741" id="Line" stroke="#30B2C8" stroke-width="2" stroke-linecap="square"></path>
                        <circle id="Oval-5" stroke="#30B2C8" fill="#FFFFFF" cx="22.1481481" cy="23.8518519" r="3.40740741"></circle>
                    </g>
                </g>
            </g>
        </g>
    </g>
</svg>