<?xml version="1.0" encoding="utf-8"?>
<!-- Generator: Adobe Illustrator 21.0.2, SVG Export Plug-In . SVG Version: 6.00 Build 0)  -->
<svg version="1.1" id="Layer_1" xmlns="http://www.w3.org/2000/svg" xmlns:xlink="http://www.w3.org/1999/xlink" x="0px" y="0px"
	 viewBox="0 0 26 26" style="enable-background:new 0 0 26 26;" xml:space="preserve">
<style type="text/css">
	.st0{fill-rule:evenodd;clip-rule:evenodd;fill:none;}
	.st1{clip-path:url(#SVGID_4_);}
	.st2{clip-path:url(#SVGID_6_);}
	.st3{fill:#30B2C8;}
	.st4{clip-path:url(#SVGID_8_);}
	.st5{clip-path:url(#SVGID_10_);}
	.st6{fill:#D2E3E2;}
	.st7{clip-path:url(#SVGID_12_);}
	.st8{fill:#FFFFFF;}
</style>
<g>
	<defs>
		<path id="SVGID_1_" d="M-20.5-20.5h67v68h-67V-20.5z"/>
	</defs>
	<clipPath id="SVGID_2_">
		<use xlink:href="#SVGID_1_"  style="overflow:visible;"/>
	</clipPath>
</g>
<path class="st0" d="M-19.5,13.5"/>
<path class="st0" d="M47.5,13.5"/>
<path class="st0" d="M46.5,13.5"/>
<path class="st0" d="M-20.5,13.5"/>
<g>
	<defs>
		<path id="SVGID_3_" d="M4,0h18c2.2,0,4,1.8,4,4v18c0,2.2-1.8,4-4,4H4c-2.2,0-4-1.8-4-4V4C0,1.8,1.8,0,4,0z"/>
	</defs>
	<clipPath id="SVGID_4_">
		<use xlink:href="#SVGID_3_"  style="overflow:visible;"/>
	</clipPath>
	<g class="st1">
		<defs>
			<rect id="SVGID_5_" width="26" height="26"/>
		</defs>
		<clipPath id="SVGID_6_">
			<use xlink:href="#SVGID_5_"  style="overflow:visible;"/>
		</clipPath>
		<g class="st2">
			<path class="st3" d="M4,0h18c2.2,0,4,1.8,4,4v18c0,2.2-1.8,4-4,4H4c-2.2,0-4-1.8-4-4V4C0,1.8,1.8,0,4,0z"/>
		</g>
	</g>
</g>
<path class="st0" d="M4-0.5c-2.5,0-4.5,2-4.5,4.5v18c0,2.5,2,4.5,4.5,4.5h18c2.5,0,4.5-2,4.5-4.5V4c0-2.5-2-4.5-4.5-4.5H4z"/>
<path class="st0" d="M4,0.5h18c1.9,0,3.5,1.6,3.5,3.5v18c0,1.9-1.6,3.5-3.5,3.5H4c-1.9,0-3.5-1.6-3.5-3.5V4C0.5,2.1,2.1,0.5,4,0.5z"
	/>
<g>
	<defs>
		<path id="SVGID_7_" d="M4,0h18c2.2,0,4,1.8,4,4v18c0,2.2-1.8,4-4,4H4c-2.2,0-4-1.8-4-4V4C0,1.8,1.8,0,4,0z"/>
	</defs>
	<clipPath id="SVGID_8_">
		<use xlink:href="#SVGID_7_"  style="overflow:visible;"/>
	</clipPath>
	<g class="st4">
		<defs>
			<rect id="SVGID_9_" width="26" height="26"/>
		</defs>
		<clipPath id="SVGID_10_">
			<use xlink:href="#SVGID_9_"  style="overflow:visible;"/>
		</clipPath>
		<g class="st5">
			<path class="st6" d="M22,27H4c-2.8,0-5-2.2-5-5V4c0-2.8,2.2-5,5-5h18c2.8,0,5,2.2,5,5v18C27,24.8,24.8,27,22,27z M4,1
				C2.3,1,1,2.3,1,4v18c0,1.7,1.3,3,3,3h18c1.7,0,3-1.3,3-3V4c0-1.7-1.3-3-3-3H4z"/>
		</g>
	</g>
</g>
<g>
	<defs>
		<rect id="SVGID_11_" width="26" height="26"/>
	</defs>
	<clipPath id="SVGID_12_">
		<use xlink:href="#SVGID_11_"  style="overflow:visible;"/>
	</clipPath>
	<g class="st7">
		<path class="st8" d="M11.4,15.7v-0.7c0-0.6,0.1-1.1,0.4-1.5s0.7-0.9,1.3-1.3c0.6-0.4,1-0.8,1.2-1.1c0.2-0.3,0.3-0.6,0.3-0.9
			c0-0.4-0.1-0.7-0.4-0.9S13.5,9.1,13,9.1c-0.9,0-1.9,0.3-3,0.9l-1-1.9C10.4,7.3,11.7,7,13.2,7c1.2,0,2.2,0.3,2.9,0.9
			c0.7,0.6,1.1,1.4,1.1,2.3c0,0.6-0.1,1.2-0.4,1.7s-0.8,1-1.7,1.6c-0.6,0.4-0.9,0.7-1.1,0.9c-0.1,0.2-0.2,0.5-0.2,0.9v0.5H11.4z
			 M11.1,18.7c0-0.5,0.1-0.9,0.4-1.1s0.6-0.4,1.2-0.4c0.5,0,0.9,0.1,1.1,0.4c0.3,0.3,0.4,0.6,0.4,1.1c0,0.5-0.1,0.8-0.4,1.1
			c-0.3,0.3-0.6,0.4-1.1,0.4c-0.5,0-0.9-0.1-1.1-0.4C11.3,19.6,11.1,19.2,11.1,18.7z"/>
	</g>
</g>
<line class="st0" x1="46.5" y1="12.5" x2="-20.5" y2="12.5"/>
</svg>
