<?xml version="1.0" encoding="utf-8"?>
<!-- Generator: Adobe Illustrator 21.0.2, SVG Export Plug-In . SVG Version: 6.00 Build 0)  -->
<svg version="1.1" id="Layer_1" xmlns="http://www.w3.org/2000/svg" xmlns:xlink="http://www.w3.org/1999/xlink" x="0px" y="0px"
	 viewBox="0 0 26 27" style="enable-background:new 0 0 26 27;" xml:space="preserve">
<style type="text/css">
	.st0{clip-path:url(#SVGID_2_);}
	.st1{clip-path:url(#SVGID_4_);}
	.st2{clip-path:url(#SVGID_6_);}
	.st3{fill:#30B2C8;}
	.st4{clip-path:url(#SVGID_8_);}
	.st5{clip-path:url(#SVGID_10_);}
	.st6{fill:#D2E3E2;}
	.st7{clip-path:url(#SVGID_12_);}
	.st8{fill:#FFFFFF;}
</style>
<g>
	<defs>
		<path id="SVGID_1_" d="M4-0.5c-2.5,0-4.5,2-4.5,4.5v19c0,2.5,2,4.5,4.5,4.5h18c2.5,0,4.5-2,4.5-4.5V4c0-2.5-2-4.5-4.5-4.5H4z
			 M4,0.5h18c1.9,0,3.5,1.6,3.5,3.5v19c0,1.9-1.6,3.5-3.5,3.5H4c-1.9,0-3.5-1.6-3.5-3.5V4C0.5,2.1,2.1,0.5,4,0.5z M-20.5-20.5h67v68
			h-67V-20.5z"/>
	</defs>
	<clipPath id="SVGID_2_">
		<use xlink:href="#SVGID_1_"  style="overflow:visible;"/>
	</clipPath>
	<g class="st0">
		<defs>
			<path id="SVGID_3_" d="M4,0h18c2.2,0,4,1.8,4,4v19c0,2.2-1.8,4-4,4H4c-2.2,0-4-1.8-4-4V4C0,1.8,1.8,0,4,0z"/>
		</defs>
		<clipPath id="SVGID_4_">
			<use xlink:href="#SVGID_3_"  style="overflow:visible;"/>
		</clipPath>
		<g class="st1">
			<defs>
				<rect id="SVGID_5_" width="26" height="27"/>
			</defs>
			<clipPath id="SVGID_6_">
				<use xlink:href="#SVGID_5_"  style="overflow:visible;"/>
			</clipPath>
			<g class="st2">
				<path class="st3" d="M4,0h18c2.2,0,4,1.8,4,4v19c0,2.2-1.8,4-4,4H4c-2.2,0-4-1.8-4-4V4C0,1.8,1.8,0,4,0z"/>
			</g>
		</g>
	</g>
</g>
<g>
	<defs>
		<path id="SVGID_7_" d="M4,0h18c2.2,0,4,1.8,4,4v19c0,2.2-1.8,4-4,4H4c-2.2,0-4-1.8-4-4V4C0,1.8,1.8,0,4,0z"/>
	</defs>
	<clipPath id="SVGID_8_">
		<use xlink:href="#SVGID_7_"  style="overflow:visible;"/>
	</clipPath>
	<g class="st4">
		<defs>
			<rect id="SVGID_9_" width="26" height="27"/>
		</defs>
		<clipPath id="SVGID_10_">
			<use xlink:href="#SVGID_9_"  style="overflow:visible;"/>
		</clipPath>
		<g class="st5">
			<path class="st6" d="M22,28H4c-2.8,0-5-2.2-5-5V4c0-2.8,2.2-5,5-5h18c2.8,0,5,2.2,5,5v19C27,25.8,24.8,28,22,28z M4,1
				C2.3,1,1,2.3,1,4v19c0,1.7,1.3,3,3,3h18c1.7,0,3-1.3,3-3V4c0-1.7-1.3-3-3-3H4z"/>
		</g>
	</g>
</g>
<g>
	<defs>
		<rect id="SVGID_11_" width="26" height="27"/>
	</defs>
	<clipPath id="SVGID_12_">
		<use xlink:href="#SVGID_11_"  style="overflow:visible;"/>
	</clipPath>
	<g class="st7">
		<path class="st8" d="M13.5,19.8c-1.8,0-3.5-0.7-4.8-2.2c-1.1-1.3-1.7-2.9-1.5-4.6c0.1-1.7,0.9-3.2,2.2-4.3c2.6-2.3,6.6-2,8.9,0.6
			l-1.5,1.3c-1.6-1.8-4.3-2-6.1-0.4c-0.9,0.8-1.4,1.8-1.5,3c-0.1,1.1,0.3,2.3,1,3.1c1.6,1.8,4.3,2,6.1,0.4l1.3,1.5
			C16.4,19.3,15,19.8,13.5,19.8z"/>
	</g>
	<g class="st7">
		<polygon class="st8" points="20.9,13.4 13.8,11.4 18.8,6.2 		"/>
	</g>
</g>
</svg>
