<?xml version="1.0" encoding="utf-8"?>
<!-- Generator: Adobe Illustrator 21.0.2, SVG Export Plug-In . SVG Version: 6.00 Build 0)  -->
<svg version="1.1" id="Layer_1" xmlns="http://www.w3.org/2000/svg" xmlns:xlink="http://www.w3.org/1999/xlink" x="0px" y="0px"
	 viewBox="0 0 26 26" style="enable-background:new 0 0 26 26;" xml:space="preserve">
<style type="text/css">
	.st0{fill-rule:evenodd;clip-rule:evenodd;fill:none;}
	.st1{clip-path:url(#SVGID_4_);}
	.st2{clip-path:url(#SVGID_6_);}
	.st3{fill:#30B2C8;}
	.st4{clip-path:url(#SVGID_8_);}
	.st5{clip-path:url(#SVGID_10_);}
	.st6{fill:#D2E3E2;}
	.st7{clip-path:url(#SVGID_12_);}
	.st8{clip-path:url(#SVGID_14_);}
	.st9{fill:#FFFFFF;}
	.st10{clip-path:url(#SVGID_16_);}
	.st11{clip-path:url(#SVGID_18_);}
</style>
<g>
	<defs>
		<path id="SVGID_1_" d="M-20.5-20.5h67v68h-67V-20.5z"/>
	</defs>
	<clipPath id="SVGID_2_">
		<use xlink:href="#SVGID_1_"  style="overflow:visible;"/>
	</clipPath>
</g>
<line class="st0" x1="47.5" y1="13.5" x2="-19.5" y2="13.5"/>
<line class="st0" x1="-20.5" y1="13.5" x2="46.5" y2="13.5"/>
<g>
	<defs>
		<path id="SVGID_3_" d="M4,0h18c2.2,0,4,1.8,4,4v18c0,2.2-1.8,4-4,4H4c-2.2,0-4-1.8-4-4V4C0,1.8,1.8,0,4,0z"/>
	</defs>
	<clipPath id="SVGID_4_">
		<use xlink:href="#SVGID_3_"  style="overflow:visible;"/>
	</clipPath>
	<g class="st1">
		<defs>
			<rect id="SVGID_5_" width="26" height="26"/>
		</defs>
		<clipPath id="SVGID_6_">
			<use xlink:href="#SVGID_5_"  style="overflow:visible;"/>
		</clipPath>
		<g class="st2">
			<path class="st3" d="M4,0h18c2.2,0,4,1.8,4,4v18c0,2.2-1.8,4-4,4H4c-2.2,0-4-1.8-4-4V4C0,1.8,1.8,0,4,0z"/>
		</g>
	</g>
</g>
<path class="st0" d="M4-0.5c-2.5,0-4.5,2-4.5,4.5v18c0,2.5,2,4.5,4.5,4.5h18c2.5,0,4.5-2,4.5-4.5V4c0-2.5-2-4.5-4.5-4.5H4z"/>
<path class="st0" d="M4,0.5h18c1.9,0,3.5,1.6,3.5,3.5v18c0,1.9-1.6,3.5-3.5,3.5H4c-1.9,0-3.5-1.6-3.5-3.5V4C0.5,2.1,2.1,0.5,4,0.5z"
	/>
<g>
	<defs>
		<path id="SVGID_7_" d="M4,0h18c2.2,0,4,1.8,4,4v18c0,2.2-1.8,4-4,4H4c-2.2,0-4-1.8-4-4V4C0,1.8,1.8,0,4,0z"/>
	</defs>
	<clipPath id="SVGID_8_">
		<use xlink:href="#SVGID_7_"  style="overflow:visible;"/>
	</clipPath>
	<g class="st4">
		<defs>
			<rect id="SVGID_9_" width="26" height="26"/>
		</defs>
		<clipPath id="SVGID_10_">
			<use xlink:href="#SVGID_9_"  style="overflow:visible;"/>
		</clipPath>
		<g class="st5">
			<path class="st6" d="M22,27H4c-2.8,0-5-2.2-5-5V4c0-2.8,2.2-5,5-5h18c2.8,0,5,2.2,5,5v18C27,24.8,24.8,27,22,27z M4,1
				C2.3,1,1,2.3,1,4v18c0,1.7,1.3,3,3,3h18c1.7,0,3-1.3,3-3V4c0-1.7-1.3-3-3-3H4z"/>
		</g>
	</g>
</g>
<g>
	<defs>
		<polygon id="SVGID_11_" points="11,16.6 15,19.8 15,7 11,10.2 7,10.2 7,13.4 7,16.6 		"/>
	</defs>
	<clipPath id="SVGID_12_">
		<use xlink:href="#SVGID_11_"  style="overflow:visible;"/>
	</clipPath>
	<g class="st7">
		<defs>
			<rect id="SVGID_13_" width="26" height="26"/>
		</defs>
		<clipPath id="SVGID_14_">
			<use xlink:href="#SVGID_13_"  style="overflow:visible;"/>
		</clipPath>
		<g class="st8">
			<rect x="2" y="2" class="st9" width="18" height="22.8"/>
		</g>
	</g>
</g>
<g>
	<defs>
		<path id="SVGID_15_" d="M17,8c0,0,2.1,3.4,2.1,5.5c0,2.1-2.1,5.5-2.1,5.5h1.8c0,0,1.8-2.9,1.8-5.5S18.8,8,18.8,8H17z"/>
	</defs>
	<clipPath id="SVGID_16_">
		<use xlink:href="#SVGID_15_"  style="overflow:visible;"/>
	</clipPath>
	<g class="st10">
		<defs>
			<rect id="SVGID_17_" width="26" height="26"/>
		</defs>
		<clipPath id="SVGID_18_">
			<use xlink:href="#SVGID_17_"  style="overflow:visible;"/>
		</clipPath>
		<g class="st11">
			<rect x="12" y="3" class="st9" width="13.7" height="21"/>
		</g>
	</g>
</g>
</svg>
